<svg width="22" height="22" viewBox="0 0 22 22" fill="none" xmlns="http://www.w3.org/2000/svg">
<g opacity="0.6">
<mask id="mask0" mask-type="alpha" maskUnits="userSpaceOnUse" x="0" y="0" width="22" height="22">
<rect width="22" height="22" fill="white"/>
</mask>
<g mask="url(#mask0)">
<path fill-rule="evenodd" clip-rule="evenodd" d="M7.01044 4C5.34782 4 4 5.34782 4 7.01044V15.0313C4 16.6939 5.34782 18.0417 7.01044 18.0417H15.0313C16.6939 18.0417 18.0417 16.6939 18.0417 15.0313V7.01044C18.0417 5.34782 16.6939 4 15.0313 4H7.01044ZM2 7.01044C2 4.24325 4.24325 2 7.01044 2H15.0313C17.7985 2 20.0417 4.24325 20.0417 7.01044V15.0313C20.0417 17.7985 17.7985 20.0417 15.0313 20.0417H7.01044C4.24325 20.0417 2 17.7985 2 15.0313V7.01044ZM11.3795 8.80172C10.92 8.73359 10.4508 8.81207 10.0385 9.026C9.62618 9.23994 9.29184 9.57843 9.08301 9.99333C8.87417 10.4082 8.80149 10.8784 8.87528 11.337C8.94907 11.7956 9.16559 12.2193 9.49404 12.5477C9.82249 12.8762 10.2461 13.0927 10.7047 13.1665C11.1633 13.2403 11.6335 13.1676 12.0484 12.9588C12.4633 12.7499 12.8018 12.4156 13.0158 12.0033C13.2297 11.591 13.3082 11.1217 13.24 10.6623C13.1705 10.1936 12.9521 9.75968 12.6171 9.42465C12.2821 9.08962 11.8482 8.87122 11.3795 8.80172ZM9.11734 7.25076C9.90304 6.84307 10.7973 6.69352 11.6729 6.82336C12.566 6.9558 13.3929 7.37198 14.0313 8.01043C14.6698 8.64888 15.086 9.47575 15.2184 10.3689C15.3482 11.2445 15.1987 12.1387 14.791 12.9244C14.3833 13.7101 13.7383 14.3473 12.9476 14.7452C12.1569 15.1432 11.2609 15.2817 10.387 15.1411C9.51307 15.0005 8.70574 14.5878 8.07983 13.9619C7.45392 13.336 7.04131 12.5287 6.90068 11.6548C6.76005 10.7808 6.89857 9.88482 7.29654 9.09415C7.6945 8.30349 8.33164 7.65844 9.11734 7.25076ZM15.4323 5.60938C14.8801 5.60938 14.4323 6.05709 14.4323 6.60938C14.4323 7.16166 14.8801 7.60938 15.4323 7.60938H15.4423C15.9946 7.60938 16.4423 7.16166 16.4423 6.60938C16.4423 6.05709 15.9946 5.60938 15.4423 5.60938H15.4323Z" fill="white"/>
</g>
</g>
</svg>
