<svg width="17" height="17" viewBox="0 0 17 17" fill="none" xmlns="http://www.w3.org/2000/svg">
<g clip-path="url(#clip0)">
<path d="M8.49999 1.53163C10.7697 1.53163 11.0383 1.5404 11.9348 1.58123C12.7635 1.61902 13.2136 1.75735 13.5132 1.87376C13.8828 2.00987 14.2172 2.22721 14.4917 2.50978C14.7742 2.78423 14.9916 3.11861 15.1277 3.48826C15.2441 3.78788 15.3824 4.23798 15.4202 5.06666C15.4611 5.96315 15.4698 6.23173 15.4698 8.50148C15.4698 10.7712 15.4611 11.0398 15.4202 11.9363C15.3824 12.765 15.2441 13.2151 15.1277 13.5147C14.9861 13.8812 14.7695 14.214 14.4917 14.4918C14.2139 14.7696 13.881 14.9863 13.5146 15.1278C13.2149 15.2443 12.7648 15.3826 11.9362 15.4204C11.04 15.4612 10.7711 15.47 8.50134 15.47C6.23159 15.47 5.96268 15.4612 5.06652 15.4204C4.23785 15.3826 3.78774 15.2443 3.48813 15.1278C3.11848 14.9917 2.7841 14.7744 2.50964 14.4918C2.22708 14.2174 2.00973 13.883 1.87363 13.5133C1.75722 13.2137 1.61888 12.7636 1.5811 11.9349C1.54027 11.0385 1.5315 10.7699 1.5315 8.50013C1.5315 6.23038 1.54027 5.9618 1.5811 5.06531C1.61888 4.23663 1.75722 3.78653 1.87363 3.48691C2.00973 3.11726 2.22708 2.78288 2.50964 2.50843C2.7841 2.22586 3.11848 2.00852 3.48813 1.87241C3.78774 1.756 4.23785 1.61767 5.06652 1.57988C5.96302 1.53905 6.23159 1.53028 8.50134 1.53028L8.49999 1.53163ZM8.50134 -0.0012207C6.19279 -0.0012207 5.9033 0.00856415 4.99668 0.0500654C4.09006 0.0915667 3.47261 0.236315 2.93275 0.446183C2.36543 0.659745 1.85145 0.99434 1.42656 1.42669C0.99421 1.85158 0.659615 2.36557 0.446054 2.93289C0.236186 3.47274 0.0924499 4.09155 0.0512861 4.99614C0.0101222 5.90073 0 6.19158 0 8.50013C0 10.8087 0.00978484 11.0982 0.0512861 12.0048C0.0927873 12.9114 0.236186 13.5275 0.446054 14.0674C0.659702 14.6345 0.994291 15.1482 1.42656 15.5729C1.85131 16.0055 2.36532 16.3402 2.93275 16.5537C3.47261 16.7639 4.09141 16.9077 4.996 16.9488C5.9006 16.99 6.19212 17.0001 8.50066 17.0001C10.8092 17.0001 11.0987 16.9903 12.0053 16.9488C12.9119 16.9073 13.5274 16.7639 14.0672 16.5537C14.6321 16.3355 15.1451 16.0016 15.5732 15.5734C16.0014 15.1452 16.3353 14.6322 16.5536 14.0674C16.7638 13.5275 16.9075 12.9087 16.9487 12.0041C16.9899 11.0995 17 10.808 17 8.49946C17 6.1909 16.9902 5.90141 16.9487 4.99479C16.9072 4.08817 16.7638 3.47274 16.5536 2.93289C16.3402 2.36576 16.0057 1.85199 15.5734 1.42737C15.1486 0.994771 14.6346 0.659943 14.0672 0.446183C13.5274 0.236315 12.9086 0.0925789 12.004 0.0514151C11.0994 0.0102512 10.8085 0.000128931 8.49999 0.000128931L8.50134 -0.0012207Z" fill="#616161"/>
<path d="M8.49998 4.13525C7.63672 4.13525 6.79284 4.39124 6.07507 4.87084C5.35729 5.35044 4.79786 6.03212 4.4675 6.82967C4.13715 7.62722 4.05071 8.50482 4.21912 9.35149C4.38754 10.1982 4.80324 10.9759 5.41365 11.5863C6.02407 12.1967 6.80179 12.6124 7.64846 12.7808C8.49513 12.9492 9.37273 12.8628 10.1703 12.5324C10.9678 12.2021 11.6495 11.6427 12.1291 10.9249C12.6087 10.2071 12.8647 9.36323 12.8647 8.49997C12.8647 7.92678 12.7519 7.35919 12.5325 6.82962C12.3132 6.30004 11.9917 5.81886 11.5864 5.41355C11.1811 5.00824 10.6999 4.68674 10.1703 4.46741C9.64076 4.24808 9.07317 4.13521 8.49998 4.13525ZM8.49998 11.3342C7.93942 11.3342 7.39145 11.168 6.92536 10.8566C6.45927 10.5451 6.096 10.1025 5.88149 9.58459C5.66697 9.0667 5.61084 8.49683 5.7202 7.94704C5.82956 7.39725 6.0995 6.89224 6.49587 6.49587C6.89224 6.09949 7.39726 5.82956 7.94704 5.7202C8.49683 5.61084 9.0667 5.66697 9.58459 5.88148C10.1025 6.096 10.5451 6.45927 10.8566 6.92536C11.168 7.39145 11.3342 7.93941 11.3342 8.49997C11.3342 9.25166 11.0356 9.97256 10.5041 10.5041C9.97256 11.0356 9.25166 11.3342 8.49998 11.3342Z" fill="#616161"/>
<path d="M13.0376 4.98259C13.6009 4.98259 14.0576 4.52593 14.0576 3.96261C14.0576 3.39929 13.6009 2.94263 13.0376 2.94263C12.4742 2.94263 12.0176 3.39929 12.0176 3.96261C12.0176 4.52593 12.4742 4.98259 13.0376 4.98259Z" fill="#616161"/>
</g>
<defs>
<clipPath id="clip0">
<rect width="17" height="17" fill="white"/>
</clipPath>
</defs>
</svg>
