<svg width="100" height="72" viewBox="0 0 100 72" fill="none" xmlns="http://www.w3.org/2000/svg">
<path d="M39.8286 27.0237L60.8184 39.939L60.8184 19.6774C69.4809 17.8952 71.2095 24.3528 71.2095 24.3528C72.943 33.2617 65.7991 33.9282 65.7991 33.9282V47.7271L100 72L81.6007 42.8296C84.7866 42.1632 87.1464 40.0109 88.0879 39.1522C88.1797 39.0685 88.258 38.9971 88.3223 38.9405C90.0338 37.4392 91.414 35.5909 92.3733 33.5156C93.3326 31.4402 93.8496 29.1842 93.8908 26.8939C94.1649 12.3287 84.3713 2.97545 72.301 2.97545L39.8286 2.97545V27.0237Z" fill="#F3AA35"/>
<path d="M60.1713 44.9813L39.1816 32.066V52.3326C30.519 54.1123 28.7905 47.6547 28.7905 47.6547C27.0594 38.7483 34.2034 38.0793 34.2034 38.0793V24.2729L0 0C0 0 18.3993 29.1704 18.3993 29.1729C15.2125 29.8395 12.8544 31.9906 11.9119 32.8504C11.8203 32.934 11.742 33.0054 11.6777 33.062C9.96631 34.5645 8.58694 36.4142 7.62926 38.491C6.67159 40.5678 6.15705 42.8251 6.11912 45.1161C5.84502 59.6788 15.6361 69.032 27.7089 69.032H60.1713V44.9813Z" fill="#F3AA35"/>
</svg>
