<svg width="17" height="13" viewBox="0 0 17 13" fill="none" xmlns="http://www.w3.org/2000/svg">
<path d="M16.6461 2.32585C16.5484 1.95736 16.3575 1.6216 16.0926 1.35229C15.8277 1.08298 15.498 0.889599 15.1368 0.791568C13.8107 0.428711 8.4965 0.428711 8.4965 0.428711C8.4965 0.428711 3.18094 0.428711 1.85765 0.791568C1.49754 0.890429 1.1692 1.08421 0.905526 1.35349C0.641852 1.62277 0.452106 1.95809 0.355303 2.32585C0 3.67871 0 6.503 0 6.503C0 6.503 0 9.32728 0.355303 10.6801C0.452106 11.0479 0.641852 11.3832 0.905526 11.6525C1.1692 11.9218 1.49754 12.1156 1.85765 12.2144C3.18234 12.5716 8.4965 12.5716 8.4965 12.5716C8.4965 12.5716 13.8121 12.5716 15.1368 12.2087C15.4974 12.1112 15.8266 11.9187 16.0914 11.6504C16.3563 11.3822 16.5476 11.0476 16.6461 10.6801C17 9.32728 17 6.503 17 6.503C17 6.503 16.993 3.67871 16.6461 2.32585ZM6.79692 9.10585V3.90014L11.213 6.503L6.79692 9.10585Z" fill="#616161"/>
</svg>
