<svg width="50" height="35" viewBox="0 0 50 35" fill="none" xmlns="http://www.w3.org/2000/svg">
<path d="M48.9591 5.46824C48.6718 4.40612 48.1104 3.43834 47.3312 2.66209C46.552 1.88584 45.5824 1.32844 44.5199 1.04588C40.6196 0 24.9897 0 24.9897 0C24.9897 0 9.35571 0 5.46367 1.04588C4.40453 1.33084 3.43882 1.88938 2.66331 2.66554C1.8878 3.4417 1.32972 4.40821 1.04501 5.46824C0 9.36765 0 17.5082 0 17.5082C0 17.5082 0 25.6488 1.04501 29.5482C1.32972 30.6083 1.8878 31.5748 2.66331 32.3509C3.43882 33.1271 4.40453 33.6856 5.46367 33.9706C9.35983 35 24.9897 35 24.9897 35C24.9897 35 40.6237 35 44.5199 33.9541C45.5805 33.673 46.5487 33.1181 47.3277 32.3449C48.1068 31.5717 48.6693 30.6073 48.9591 29.5482C50 25.6488 50 17.5082 50 17.5082C50 17.5082 49.9794 9.36765 48.9591 5.46824ZM19.9909 25.0106V10.0059L32.9795 17.5082L19.9909 25.0106Z" fill="#FF0000"/>
</svg>
