<svg width="22" height="22" viewBox="0 0 22 22" fill="none" xmlns="http://www.w3.org/2000/svg">
<g opacity="0.6">
<mask id="mask0" mask-type="alpha" maskUnits="userSpaceOnUse" x="0" y="0" width="22" height="22">
<rect width="22" height="22" fill="white"/>
</mask>
<g mask="url(#mask0)">
<path fill-rule="evenodd" clip-rule="evenodd" d="M11.0007 3.99561C11.0007 2.99561 11.0006 2.99561 11.0005 2.99561H11.0003H10.9993H10.9956L10.9816 2.99562L10.9279 2.99571L10.7242 2.99643C10.5484 2.99725 10.296 2.99889 9.98831 3.00217C9.37341 3.00872 8.53607 3.02184 7.64831 3.04812C6.76215 3.07435 5.81776 3.11393 4.99119 3.17398C4.19248 3.23202 3.41916 3.31423 2.92493 3.4459L2.9111 3.4497C2.31435 3.61788 1.77229 3.94009 1.33985 4.3842C0.90738 4.82834 0.599885 5.37868 0.448853 5.97979C0.443405 6.00148 0.438685 6.02334 0.434702 6.04534C0.137928 7.68474 -0.00741266 9.34778 0.000504629 11.0136C-0.00972615 12.692 0.135626 14.3678 0.434709 16.0195C0.440609 16.0521 0.448124 16.0844 0.457226 16.1162C0.623723 16.6986 0.938075 17.228 1.3695 17.6533C1.80091 18.0786 2.33479 18.3856 2.91939 18.545L2.91939 18.545L2.92493 18.5464C3.41916 18.6781 4.19248 18.7603 4.99119 18.8184C5.81776 18.8784 6.76215 18.918 7.64831 18.9442C8.53607 18.9705 9.37341 18.9836 9.98831 18.9902C10.296 18.9935 10.5484 18.9951 10.7242 18.9959L10.9279 18.9966L10.9816 18.9967L10.9956 18.9967H10.9993H11.0003H11.0005C11.0006 18.9967 11.0007 18.9967 11.0007 17.9967C11.0007 18.9967 11.0007 18.9967 11.0008 18.9967H11.0011H11.0021H11.0058L11.0197 18.9967L11.0735 18.9966L11.2772 18.9959C11.453 18.9951 11.7054 18.9935 12.0131 18.9902C12.628 18.9836 13.4653 18.9705 14.3531 18.9442C15.2392 18.918 16.1836 18.8784 17.0102 18.8184C17.8089 18.7603 18.5822 18.6781 19.0764 18.5464L19.0903 18.5427C19.687 18.3745 20.2291 18.0523 20.6615 17.6081C21.094 17.164 21.4015 16.6137 21.5525 16.0126C21.558 15.9909 21.5627 15.969 21.5667 15.947C21.8612 14.3197 22.0065 12.6691 22.0009 11.0156C22.0111 9.33702 21.8658 7.66105 21.5667 6.00907L20.5827 6.18725L21.5525 5.94356C21.4015 5.34245 21.094 4.79212 20.6615 4.34798C20.2291 3.90386 19.687 3.58166 19.0903 3.41347C19.0787 3.41021 19.067 3.40715 19.0554 3.40431C18.569 3.28601 17.803 3.21128 17.0039 3.15827C16.1791 3.10355 15.2361 3.06745 14.3505 3.04352C13.4634 3.01954 12.6267 3.00758 12.0121 3.0016C11.7047 2.9986 11.4524 2.99711 11.2768 2.99636L11.0733 2.9957L11.0197 2.99562L11.0057 2.99561H11.0021H11.0011H11.0008C11.0007 2.99561 11.0007 2.99561 11.0007 3.99561ZM11.0007 3.99561L11.0007 4.99561H11.0008H11.0016L11.0047 4.99561L11.0177 4.99562L11.0693 4.9957L11.2682 4.99634C11.4407 4.99708 11.6893 4.99855 11.9927 5.0015C12.5997 5.00741 13.4244 5.01922 14.2964 5.04279C15.17 5.0664 16.0838 5.10162 16.8715 5.15388C17.6689 5.20678 18.2632 5.27307 18.5647 5.34338C18.8172 5.41767 19.0458 5.5555 19.2286 5.74323C19.4085 5.92804 19.538 6.15489 19.6053 6.40227C19.8782 7.92222 20.0106 9.46391 20.0009 11.008H20.0008L20.0009 11.0179C20.0063 12.5387 19.8739 14.0569 19.6053 15.5539C19.538 15.8013 19.4085 16.0281 19.2286 16.2129C19.0434 16.4031 18.811 16.5421 18.5546 16.6157C18.2644 16.6917 17.6725 16.765 16.8652 16.8236C16.0793 16.8807 15.1668 16.9193 14.2939 16.9451C13.4225 16.9709 12.5985 16.9838 11.9917 16.9903C11.6886 16.9935 11.4402 16.9951 11.2678 16.9959L11.0691 16.9966L11.0176 16.9967L11.0047 16.9967L11.0016 16.9967L11.0008 16.9967H11.0007H11.0005L10.9998 16.9967L10.9967 16.9967L10.9838 16.9967L10.9323 16.9966L10.7335 16.9959C10.5612 16.9951 10.3128 16.9935 10.0096 16.9903C9.40291 16.9838 8.57886 16.9709 7.70749 16.9451C6.83453 16.9193 5.92207 16.8807 5.13612 16.8236C4.32493 16.7647 3.73127 16.691 3.44261 16.6146C3.18977 16.5452 2.95947 16.4123 2.77365 16.2291C2.59767 16.0556 2.46719 15.8425 2.39287 15.6085C2.12215 14.0943 1.99081 12.5586 2.0005 11.0206H2.00056L2.00051 11.0093C1.99291 9.4769 2.12531 7.94698 2.39607 6.43848C2.46341 6.19111 2.59282 5.96426 2.77277 5.77946C2.95802 5.58921 3.19033 5.45021 3.4468 5.37665C3.73699 5.30068 4.32884 5.22738 5.13612 5.16873C5.92207 5.11162 6.83453 5.07308 7.70749 5.04724C8.57886 5.02145 9.40291 5.00852 10.0096 5.00206C10.3128 4.99883 10.5612 4.99721 10.7335 4.99641L10.9323 4.9957L10.9838 4.99562L10.9967 4.99561L10.9998 4.99561H11.0005H11.0007L11.0007 3.99561ZM14.1819 11.0137L8.95453 13.9751V8.05225L14.1819 11.0137Z" fill="white"/>
</g>
</g>
</svg>
